<?xml version="1.0" encoding="UTF-8"?>
<svg id="_レイヤー_1" data-name="レイヤー_1" xmlns="http://www.w3.org/2000/svg" version="1.1" viewBox="0 0 226 225">
  <!-- Generator: Adobe Illustrator 30.4.0, SVG Export Plug-In . SVG Version: 2.1.4 Build 226)  -->
  <defs>
    <style>
      .st0 {
        fill: #07c;
      }

      .st1 {
        fill: #333;
      }
    </style>
  </defs>
  <path class="st0" d="M140.79,26.75c.33,1.76.05,3.07-.85,3.94-1.1,1.05-2.16,2.14-3.19,3.27-7.01,6.91-13.99,13.86-20.94,20.85-1.23,1.25-2.54,1.67-3.91,1.28-.75-.21-1.74-.93-2.97-2.14-7.63-7.5-15.23-15.03-22.8-22.58-1.3-1.3-1.73-2.68-1.28-4.15.24-.77.99-1.82,2.26-3.13,7.31-7.51,14.75-14.91,22.3-22.18,1.01-.96,1.88-1.52,2.63-1.68,1.17-.25,2.26.07,3.27.96,1.93,1.7,1.98,3.54.13,5.51-6.71,7.2-13.61,14.22-20.72,21.07-.23.22-.23.58-.01.81,0,0,0,0,.01.01l17.66,17.67c.2.2.53.21.74,0,0,0,0,0,0,0,6.71-6.71,13.39-13.42,20.02-20.12,2.81-2.83,5.36-2.63,7.65.61Z"/>
  <path class="st1" d="M140.79,26.75c15.01,14.63,29.88,29.39,44.63,44.28,1.89,1.91,2.89,2.94,2.99,3.09,1.02,1.53.86,3.14-.47,4.82-.88,1.1-1.99,1.53-3.33,1.28-.82-.15-1.73-.71-2.72-1.67-10.89-10.6-21.73-21.33-32.54-32.2-.26-.26-.67-.26-.93,0,0,0,0,0,0,0-6.97,6.99-14,13.98-21.1,20.96-1.43,1.41-3.04,1.39-4.82-.06-1.23-1.01-1.74-2.19-1.51-3.55.14-.83.74-1.8,1.8-2.91,6.32-6.57,12.92-13.23,19.79-19.98.36-.34.39-.9.06-1.24,0,0-.01-.01-.02-.02l-5.86-5.59c1.03-1.13,2.09-2.22,3.19-3.27.9-.87,1.18-2.18.85-3.94Z"/>
  <path class="st0" d="M29.52,95.16c-1.61-1.47-2.95-2.85-4.02-4.16-1.51-1.84-1.4-3.64.34-5.41,15.87-16.13,31.87-32.13,48.02-47.98,1.83-1.81,3.65-1.86,5.45-.17,1.07,1,1.47,2.15,1.21,3.44-.15.81-.74,1.72-1.77,2.74-10.41,10.43-21.11,21.13-32.09,32.1-.3.3-.3.78,0,1.07,0,0,0,0,0,0,7.02,6.89,13.69,13.62,20,20.18,1.1,1.15,1.72,2.17,1.87,3.07.26,1.52-.35,2.73-1.84,3.64-1.98,1.21-3.86.88-5.65-.98-6.63-6.89-13.36-13.67-20.18-20.36-.21-.21-.54-.22-.73-.03,0,0,0,0,0,0l-5.57,5.79c-.19.2-.17.53.04.74,11.32,11.09,18.27,17.99,20.84,20.71,1.68,1.78,1.58,3.64-.3,5.58-7.47,7.69-15,15.33-22.57,22.92-1.25,1.24-2.3,1.96-3.16,2.17-1.44.35-2.79-.1-4.05-1.34-8.03-7.97-16.05-15.96-24.06-23.97-1.09-1.09-1.32-2.33-.68-3.74.97-2.13,2.39-3.01,4.28-2.64,1.04.2,2.24.97,3.59,2.32,6.41,6.41,12.88,12.89,19.42,19.43.29.29.76.29,1.05,0l17.5-17.36c.3-.31.31-.79.01-1.09,0,0,0,0,0,0-4.47-4.47-8.72-8.71-12.75-12.74-.68-.68-2.08-1.99-4.2-3.94Z"/>
  <path class="st0" d="M75.98,70.36l-5.11,5.37c-.35.36-.36.91-.03,1.24,2.47,2.47,4.95,4.95,7.44,7.44,1.23,1.23,1.98,2.3,2.23,3.2.48,1.71-.13,3.07-1.82,4.08-1.51.9-2.95.89-4.31-.04-.17-.11-1.12-1.02-2.85-2.71-3.15-3.09-6.24-6.25-9.27-9.47-1.03-1.09-1.54-2.09-1.53-2.99,0-1.19.53-2.33,1.58-3.42,7.51-7.79,15.16-15.45,22.94-22.98,1.13-1.1,2.15-1.69,3.04-1.77,1.31-.13,2.52.37,3.65,1.5,4.95,4.96,8.61,8.68,10.97,11.15,1.08,1.13,1.67,2.17,1.78,3.13.17,1.55-.49,2.75-2,3.6-1.91,1.08-3.7.74-5.37-1.02-2.63-2.78-5.32-5.54-8.07-8.29-.34-.34-.92-.33-1.28.04,0,0,0,0-.01.01l-5.14,5.34c-.23.23-.24.59-.04.81,2.96,3.29,5.75,6.3,8.36,9.02,2.06,2.15,2.08,4.09.05,5.84-1.58,1.35-3.27,1.25-5.06-.32-3.02-2.65-6.08-5.58-9.17-8.8-.25-.26-.67-.25-.95.01,0,0-.02.02-.03.03Z"/>
  <path class="st1" d="M149.85,70.72c-.45-.48-1.22-.48-1.71,0-.01.01-.03.03-.04.04-3.01,3.15-5.94,6-8.79,8.56-1.65,1.49-3.32,1.37-5.01-.36-1.78-1.8-1.79-3.61-.02-5.43,3.43-3.53,6.88-7.03,10.35-10.52,1.45-1.45,2.62-2.3,3.51-2.54,1.47-.4,2.79.06,3.97,1.37.79.89,1.21,1.35,1.24,1.39,7.77,7.61,15.4,15.24,22.88,22.88,1.5,1.53,1.49,3.06-.03,4.57-4.13,4.14-8.31,8.22-12.53,12.25-1.87,1.79-3.7,1.83-5.48.14-1.12-1.06-1.49-2.23-1.12-3.51.2-.69.82-1.59,1.87-2.72,2.39-2.59,5.01-5.24,7.84-7.97.33-.31.35-.82.04-1.15,0,0,0,0-.01-.01l-5.25-5.14c-.35-.34-.92-.34-1.27.02-2.29,2.3-4.54,4.55-6.74,6.75-1.48,1.48-2.67,2.39-3.58,2.73-2.05.77-3.63-.06-4.73-2.49-.63-1.38-.41-2.61.64-3.7l8.96-9.2c.2-.2.2-.53.01-.73l-5-5.22Z"/>
  <rect class="st1" x="83.23" y="82.86" width="59.04" height="59.04" rx="4.2" ry="4.2" transform="translate(-46.44 112.36) rotate(-44.9)"/>
  <path class="st1" d="M196.32,94.57l-17.16,17.39c-.26.26-.27.68-.01.94,6.56,6.65,13.19,13.33,19.89,20.02,1.23,1.23,1.85,2.32,1.87,3.29.02,1.31-.6,2.59-1.85,3.85-15.53,15.65-31.15,31.21-46.88,46.66-1.07,1.05-2.03,1.64-2.88,1.79-1.39.23-2.56-.29-3.49-1.57-1.45-2.01-1.25-3.93.62-5.76,10.75-10.58,21.59-21.32,32.5-32.23.25-.25.25-.65,0-.9-5.91-5.91-11.87-11.86-17.87-17.86-1.06-1.07-1.93-1.99-2.6-2.78-.97-1.13-1.45-2.23-1.46-3.32-.02-1.61.81-2.73,2.5-3.34,1.82-.67,3.44-.21,4.85,1.37.61.68.94,1.04.98,1.09,6.39,6.45,12.83,12.84,19.31,19.19.21.21.54.22.73.03,0,0,0,0,0,0l5.51-5.73c.18-.19.16-.52-.05-.74l-21.27-21.52c-1.33-1.35-1.33-2.73,0-4.13,7.91-8.25,16-16.34,24.25-24.25,1.48-1.41,2.97-1.88,4.46-1.4.75.24,1.84,1.08,3.27,2.51l21.16,21.16c1.25,1.24,2.01,2.25,2.29,3.03.57,1.57.13,2.93-1.3,4.08-1.89,1.51-3.8,1.3-5.74-.64-6.67-6.66-13.43-13.41-20.28-20.25-.37-.37-.97-.36-1.34.01,0,0,0,0,0,0Z"/>
  <path class="st1" d="M58.62,136.71l5.33,5.52c.33.35.92.32,1.32-.06l9.59-9.11c.22-.21.53-.33.88-.35,3.58-.25,5.09,1.41,4.54,4.98-.05.33-.2.63-.42.86l-8.98,9.17c-.42.43-.42,1.11,0,1.52l5.26,5.26c.2.2.52.21.73,0l9.45-9.2c1.18-1.14,2.41-1.33,3.69-.56,3.11,1.86,3.4,4.16.89,6.9-6.35,6.93-10.42,11.03-12.2,12.29-1.59,1.13-3.19.93-4.78-.6-8-7.65-15.82-15.47-23.47-23.46-1.17-1.23-1.73-2.36-1.68-3.4.07-1.32.72-2.58,1.93-3.79,3.5-3.5,7.02-6.98,10.55-10.45,2.6-2.54,4.92-2.35,6.95.58.91,1.3.83,2.5-.24,3.6l-9.28,9.55c-.21.22-.23.55-.05.74Z"/>
  <path class="st1" d="M142.66,159.82c-2.27-2.01-4.5-4.2-6.67-6.57-1.56-1.71-2.35-2.58-2.38-2.61-.86-1.25-.93-2.52-.21-3.83.69-1.25,1.68-1.96,2.95-2.11,1.34-.16,2.62.38,3.84,1.61,2.73,2.77,5.48,5.49,8.26,8.15.28.26.71.26.98-.01l5.2-5.2c.41-.41.41-1.08,0-1.5h0s-8.7-8.7-8.7-8.7c-1.25-1.25-1.46-2.65-.62-4.2,1.16-2.14,2.72-2.85,4.69-2.12.9.33,2.07,1.22,3.52,2.66l9.22,9.22c1.2,1.2,1.9,2.21,2.1,3.03.34,1.39-.09,2.7-1.29,3.91-7.47,7.54-14.98,15.03-22.54,22.46-1.4,1.39-2.56,2.15-3.47,2.3-1.46.23-2.91-.35-4.35-1.75-4.06-3.94-8.02-7.98-11.88-12.12-1.46-1.57-1.21-3.11.75-4.63,2.19-1.69,4.25-1.54,6.18.45,2.63,2.7,5.37,5.47,8.21,8.31.23.23.61.24.84,0,0,0,0,0,0,0l5.41-5.4c.36-.37.35-.96-.01-1.32-.01-.01-.02-.02-.04-.03Z"/>
  <path class="st1" d="M112.4,178.6c-6.95,6.81-13.87,13.65-20.76,20.54-1.3,1.3-2.68,1.71-4.13,1.24-.75-.25-1.78-1.02-3.07-2.31-15.54-15.55-31.08-31.09-46.63-46.63-1.25-1.25-1.6-2.62-1.07-4.09.47-1.29,1.34-2.14,2.63-2.57,1.57-.51,3.07-.06,4.49,1.37,10.55,10.61,21.28,21.36,32.17,32.25.29.29.75.3,1.05.01,0,0,0,0,0,0l20.74-20.61c1.33-1.31,2.83-1.58,4.5-.81,1.77.81,2.53,2.1,2.27,3.85-.15,1.02-.81,2.13-1.99,3.34-6.44,6.56-13,13.15-19.69,19.78-.37.37-.37.96-.01,1.32l5.12,5.12c.34.33.87.33,1.21,0,7.05-7.06,13.91-13.92,20.58-20.59,1.28-1.27,2.68-1.61,4.21-1,.74.29,1.76,1.09,3.05,2.38,7.54,7.54,15.08,15.08,22.62,22.62,1.28,1.29,1.59,2.67.92,4.16-.29.65-1.09,1.64-2.4,2.96-11.87,11.95-19.44,19.48-22.71,22.57-1.29,1.22-2.63,1.51-4.04.86-1.19-.55-1.99-1.45-2.38-2.68-.48-1.5-.04-2.93,1.32-4.28,6.69-6.64,13.48-13.4,20.37-20.29.27-.27.27-.7,0-.97l-17.66-17.54c-.2-.19-.52-.19-.71,0Z"/>
</svg>